HIERARCHY
ROOT pelvis
{
	OFFSET 0.000000 0.000000 0.000000
	CHANNELS 6 Xposition Yposition Zposition Zrotation Xrotation Yrotation
	JOINT lfemur
	{
		OFFSET 11.446000 0.000000 0.000000
		CHANNELS 3 Zrotation Xrotation Yrotation
		JOINT ltibia
		{
			OFFSET 0.000000 -42.030400 0.000000
			CHANNELS 3 Zrotation Xrotation Yrotation
			JOINT lfoot
			{
				OFFSET 0.000000 -39.930200 0.000000
				CHANNELS 3 Zrotation Xrotation Yrotation
				JOINT ltoes
				{
					OFFSET 0.000000 0.000000 11.775800
					CHANNELS 3 Zrotation Xrotation Yrotation
					End Site
					{
					    OFFSET 0.000000 0.000000 5.000000
					}
				}
			}
		}
	}
	JOINT rfemur
	{
		OFFSET -11.446000 0.000000 0.000000
		CHANNELS 3 Zrotation Xrotation Yrotation
		JOINT rtibia
		{
			OFFSET 0.000000 -42.030400 0.000000
			CHANNELS 3 Zrotation Xrotation Yrotation
			JOINT rfoot
			{
				OFFSET 0.000000 -39.930200 0.000000
				CHANNELS 3 Zrotation Xrotation Yrotation
				JOINT rtoes
				{
					OFFSET 0.000000 0.000000 11.775800
					CHANNELS 3 Zrotation Xrotation Yrotation
					End Site
					{
					    OFFSET 0.000000 0.000000 5.000000
					}
				}
			}
		}
	}
	JOINT thorax
	{
		OFFSET 0.000000 11.255600 -5.000000
		CHANNELS 3 Zrotation Xrotation Yrotation
		JOINT head
		{
			OFFSET 0.000000 43.799300 0.000000
			CHANNELS 3 Zrotation Xrotation Yrotation
			End Site
			{
			    OFFSET 0.000000 5.000000 0.000000
			}
		}
		JOINT lclavicle
		{
			OFFSET 0.000000 39.863000 0.000000
			CHANNELS 3 Zrotation Xrotation Yrotation
			JOINT lhumerus
			{
				OFFSET 17.380600 4.958300 0.000000
				CHANNELS 3 Zrotation Xrotation Yrotation
				JOINT lradius
				{
					OFFSET 0.000000 -27.561300 0.000000
					CHANNELS 3 Zrotation Xrotation Yrotation
					JOINT lhand
					{
						OFFSET 0.000000 -26.933000 0.000000
						CHANNELS 3 Zrotation Xrotation Yrotation
						End Site
						{
						    OFFSET 0.000000 -5.000000 0.000000
						}
					}
				}
			}
		}
		JOINT rclavicle
		{
			OFFSET 0.000000 39.863000 0.000000
			CHANNELS 3 Zrotation Xrotation Yrotation
			JOINT rhumerus
			{
				OFFSET -17.380600 4.958300 0.000000
				CHANNELS 3 Zrotation Xrotation Yrotation
				JOINT rradius
				{
					OFFSET 0.000000 -27.561300 0.000000
					CHANNELS 3 Zrotation Xrotation Yrotation
					JOINT rhand
					{
						OFFSET 0.000000 -26.933000 0.000000
						CHANNELS 3 Zrotation Xrotation Yrotation
						End Site
						{
						    OFFSET 0.000000 -5.000000 0.000000
						}
					}
				}
			}
		}
	}
}
MOTION
Frames: 14
Frame Time:	0.0333333
75.267200 79.320900 18.251700 -3.245999 -14.287186 -161.186790 13.782608 -40.668261 31.574986 -0.000000 52.107497 -0.000000 0.000000 -0.911566 9.214156 -0.000000 -1.591011 -0.000000 -23.355137 -32.863298 -20.762979 -0.000000 53.987251 -0.000000 -0.000000 -14.309652 1.454567 -0.000000 -29.587419 -0.000000 -6.421279 15.599091 -2.158955 -3.062475 17.456762 32.756780 -13.352455 0.000000 -1.022989 36.907077 8.714084 18.226031 -180.000037 -53.549831 166.772345 19.865065 -3.347294 0.000000 18.606980 -0.000000 -3.964859 -55.030908 -20.319679 6.244799 -180.000036 -52.288134 171.026815 3.962872 -4.797986 0.000000 
74.213800 79.373400 18.378200 -2.415323 -14.907417 -159.374989 15.095743 -42.067428 36.769241 -0.000000 52.677018 0.000000 0.000000 -1.183043 11.287431 -0.000000 -1.551198 -0.000000 -24.449017 -32.114096 -22.492242 -0.000000 53.117269 -0.000000 0.000000 -13.891127 0.547593 -0.000000 -29.588457 -0.000000 -6.085212 15.787295 -1.942257 -2.254184 16.777872 32.234265 -12.572193 0.000000 -0.828317 36.484307 9.080709 17.339182 180.000036 -53.487724 166.833661 19.702755 -3.529975 0.000000 18.732662 0.000000 -3.716226 -55.608118 -20.509599 3.278369 -180.000037 -51.521728 171.701707 3.147334 -4.522282 -0.000000 
72.826700 79.437500 18.302000 -1.273964 -15.282110 -157.426094 16.446748 -43.320288 41.015159 -0.000000 53.373141 -0.000000 -0.000000 -1.006208 13.717429 -0.000000 -1.504414 -0.000000 -25.114091 -30.738105 -24.135284 0.000000 51.739978 0.000000 -0.000000 -13.315963 -0.458155 0.000000 -29.590288 -0.000000 -5.406277 15.694518 -1.209439 -1.497844 16.288122 31.503478 -11.935878 0.000000 -0.280587 36.108400 10.261587 16.633006 180.000033 -53.512881 167.764410 18.191809 -4.198845 -0.000000 18.663103 -0.000000 -3.269663 -57.892976 -20.048545 -2.175617 180.000036 -49.674936 173.144891 0.764209 -3.715037 0.000000 
71.119900 79.477500 17.793700 0.000604 -15.269145 -155.437698 18.020864 -43.791038 45.335773 0.000000 54.120241 -0.000000 0.000000 0.584509 15.818266 -0.000000 -1.467364 -0.000000 -25.061074 -28.449296 -25.129982 0.000000 49.729303 0.000000 0.000000 -12.809024 -1.758892 -0.000000 -29.592883 0.000000 -4.972336 15.198933 -0.048269 -0.307731 16.112897 30.973765 -11.174084 -0.000000 0.762053 35.962485 12.644884 14.793844 -180.000036 -53.286993 168.371634 17.817986 -4.691087 -0.000000 18.444922 0.000000 -2.487197 -61.438335 -18.062708 -9.719436 -180.000037 -47.470074 172.731974 -2.270309 -2.686281 0.000000 
69.108900 79.634900 16.589000 1.954794 -14.137302 -152.298111 19.968185 -43.112174 50.356437 0.000000 54.935120 -0.000000 -0.000000 3.698458 15.203841 -0.000000 -1.463070 -0.000000 -23.149309 -24.054391 -24.992879 -0.000000 46.277072 -0.000000 -0.000000 -11.678695 -3.407790 0.000000 -29.598457 -0.000000 -4.130260 14.515658 0.825031 2.243536 16.378686 29.746275 -9.926401 -0.000000 2.079884 35.315627 15.668679 11.740394 -180.000037 -53.490192 168.834918 16.500754 -5.132830 0.000000 18.484019 -0.000000 -2.074668 -65.535915 -14.236406 -18.355892 -180.000037 -45.915553 173.912011 -5.833375 -1.478635 -0.000000 
66.526900 79.901300 14.602000 4.175791 -11.767593 -146.705154 19.867748 -41.597945 52.523767 0.000000 55.513402 -0.000000 -0.000000 1.152533 15.644694 0.000000 -1.422374 -0.000000 -20.243712 -16.453307 -25.250548 0.000000 41.124728 -0.000000 0.000000 -9.170319 -5.039622 -0.000000 -29.607534 -0.000000 -3.045710 12.940461 1.206121 6.438356 17.858705 27.050117 -8.135779 0.000000 2.750695 34.249512 19.314713 6.994983 -180.000036 -54.322594 169.124624 13.199925 -6.345703 -0.000000 19.730467 0.000000 -2.268880 -69.706083 -6.338237 -27.973859 -180.000037 -44.220920 174.480527 -7.918564 -0.774571 0.000000 
63.348300 80.363100 12.436100 6.206408 -9.385859 -138.943926 15.808626 -39.933860 48.039914 0.000000 53.479914 -0.000000 -0.000000 -3.729696 15.360524 -0.000000 -1.355913 0.000000 -17.783853 -9.638028 -25.012812 -0.000000 39.127853 -0.000000 -0.000000 -2.166311 -7.129278 -0.000000 -29.616389 -0.000000 -2.320744 10.725324 0.784338 11.964331 18.755759 22.830520 -6.425030 0.000000 3.131919 34.359835 22.985741 1.758641 -180.000037 -55.183342 167.817609 11.445789 -7.880560 -0.000000 21.806311 0.000000 -5.061185 -73.396230 1.142083 -37.069578 180.000037 -43.369734 170.437478 -10.509122 0.107909 -0.000000 
59.364300 81.028800 10.668000 6.986903 -7.282389 -130.582688 8.361618 -36.973381 36.515568 0.000000 50.275588 0.000000 0.000000 -7.542719 13.031466 -0.000000 -1.348575 0.000000 -18.617670 -7.244114 -24.218330 -0.000000 47.240303 -0.000000 -0.000000 11.412434 -6.183674 0.000000 -29.615949 -0.000000 -1.938140 9.431125 -0.420473 16.560214 18.608440 18.208286 -5.172420 -0.000000 3.418331 34.717396 26.938292 -1.030109 180.000036 -56.749470 167.074356 8.989859 -8.921080 0.000000 23.124297 0.000000 -9.773571 -75.065793 6.213615 -45.566143 180.000037 -42.827741 170.580708 -12.717813 0.851637 -0.000000 
55.736200 81.759700 9.423400 6.885884 -6.608663 -124.400405 3.605637 -34.193668 30.479139 -0.000000 48.433141 -0.000000 -0.000000 -7.699645 11.105856 -0.000000 -1.360215 -0.000000 -19.239551 -11.893182 -16.951637 -0.000000 62.343596 0.000000 0.000000 15.987538 -3.450448 -0.000000 -29.563602 -0.000000 -3.195831 8.464095 -0.863326 19.416266 18.331126 15.175403 -4.122059 -0.000000 4.198165 34.654203 30.967208 0.063740 -180.000035 -59.213258 167.983769 8.325399 -9.106636 -0.000000 23.852112 -0.000000 -12.999200 -74.402102 10.990644 -54.333587 -180.000037 -42.934207 174.104181 -16.907408 2.266049 0.000000 
52.396600 82.243800 8.307700 6.093956 -6.408788 -118.739738 -1.117440 -30.201904 24.621598 -0.000000 45.536529 -0.000000 0.000000 -8.571970 9.272649 0.000000 -1.361637 -0.000000 -17.645748 -19.214397 -10.806132 -0.000000 76.112693 0.000000 -0.000000 11.148131 -6.800778 0.000000 -29.555703 0.000000 -4.952884 8.758653 -2.236507 20.868087 18.319622 13.973484 -3.393041 0.000000 5.572427 34.653307 34.345593 4.171732 180.000037 -61.744766 167.349405 7.389024 -9.515454 -0.000000 23.975090 0.000000 -15.517073 -72.228777 12.936732 -62.940944 -180.000036 -44.162362 171.728512 -21.042320 3.667511 0.000000 
49.140300 82.719200 7.472900 5.837795 -5.355254 -112.344652 -4.458535 -26.442608 17.629972 -0.000000 43.072063 0.000000 -0.000000 -9.192874 8.108822 0.000000 -1.375424 -0.000000 -15.135233 -27.759664 -9.316412 -0.000000 83.501341 0.000000 0.000000 5.036562 -12.678745 0.000000 -29.531794 -0.000000 -4.528255 9.659637 -4.556687 20.923078 18.387119 13.486262 -3.354189 0.000000 6.195639 33.853497 36.738627 9.451348 -180.000033 -63.646683 169.836052 7.589672 -9.285913 0.000000 23.174219 -0.000000 -17.038141 -69.107806 13.672118 -72.138751 -180.000036 -46.137558 170.858521 -25.353400 5.131468 0.000000 
46.052300 83.110500 6.535300 5.995510 -4.573341 -105.625712 -6.534646 -23.336707 11.400161 -0.000000 41.215682 -0.000000 -0.000000 -9.449397 6.636754 -0.000000 -1.390240 0.000000 -13.502626 -36.919550 -9.444098 0.000000 83.210416 -0.000000 -0.000000 3.544420 -8.755428 0.000000 -29.537771 -0.000000 -3.975847 10.222602 -6.009069 21.449898 17.787304 11.861437 -2.799142 -0.000000 5.786754 32.149656 37.466552 13.617367 180.000035 -63.917866 170.661746 7.514292 -9.463499 0.000000 23.309677 -0.000001 -18.798074 -67.259902 13.011548 -80.953328 180.000036 -48.713865 170.348136 -31.051012 7.066691 -0.000000 
42.584600 83.242600 5.315000 5.748056 -3.518448 -98.544395 -7.548282 -19.768290 5.484326 -0.000000 39.927170 -0.000000 -0.000000 -10.218420 5.349008 0.000000 -1.404448 0.000000 -12.859489 -42.964359 -10.357718 0.000000 74.517700 -0.000000 -0.000000 3.846332 -2.069695 0.000000 -29.564743 -0.000000 -3.375460 10.414176 -7.039856 22.770378 17.752784 9.754561 -1.982987 0.000000 5.378443 31.508061 36.741766 13.924936 180.000036 -62.552771 170.573914 7.285934 -9.896873 0.000000 23.966976 0.000000 -20.519607 -66.590731 10.819588 -88.192202 180.000034 -50.882356 169.473397 -34.450407 8.219044 -0.000000 
38.620600 83.386100 4.095800 5.033546 -2.386851 -89.946850 -7.841477 -15.477163 -1.361768 -0.000000 38.480454 0.000000 0.000000 -11.095319 3.797725 0.000000 -1.430733 -0.000000 -13.886602 -43.408502 -11.459814 0.000000 58.255071 0.000000 0.000000 3.906443 1.454205 0.000000 -29.583605 -0.000000 -2.766325 10.291454 -8.446338 25.353971 17.753862 5.996045 -1.308200 -0.000000 4.872833 31.971093 34.110214 10.340464 -180.000037 -61.313915 169.564770 7.095482 -10.166517 -0.000000 24.821214 -0.000000 -21.324650 -65.919173 8.438917 -93.560314 180.000036 -51.902531 173.164343 -38.056360 9.439855 0.000000 
